<svg width="354" height="354" viewBox="0 0 354 354" fill="none" xmlns="http://www.w3.org/2000/svg">
<g clip-path="url(#clip0_8499_6701)">
<path style="mix-blend-mode:screen" d="M177 335C267.575 335 341 261.575 341 171C341 80.4253 267.575 7 177 7C86.4253 7 13 80.4253 13 171C13 261.575 86.4253 335 177 335Z" fill="url(#paint0_radial_8499_6701)"/>
<path style="mix-blend-mode:screen" d="M177.002 340.607C267.409 340.607 340.699 267.317 340.699 176.91C340.699 86.5025 267.409 13.2129 177.002 13.2129C86.5943 13.2129 13.3047 86.5025 13.3047 176.91C13.3047 267.317 86.5943 340.607 177.002 340.607Z" fill="url(#paint1_radial_8499_6701)"/>
<path d="M178.58 323.613C209.774 323.354 239.453 313.482 264.455 295.017C289.306 276.66 307.447 251.506 316.928 222.261C321.669 207.649 324.072 192.387 324.072 176.91C324.072 153.357 318.379 129.957 307.577 109.24C297.143 89.1731 281.925 71.5305 263.611 58.1958C238.435 39.8822 208.605 30.2058 177.347 30.2058C146.088 30.2058 116.258 39.8822 91.082 58.1958C72.7467 71.5305 57.5503 89.1731 47.1163 109.24C36.336 129.978 30.6211 153.379 30.6211 176.91C30.6211 192.387 33.024 207.649 37.7647 222.261C47.2462 251.506 65.3867 276.66 90.2378 295.017C115.262 313.482 144.919 323.354 176.113 323.613M42.4405 220.745C38.6739 209.142 36.4442 197.128 35.7732 184.897L53.0693 176.91L35.7732 168.922C38.176 126.666 59.5419 87.2032 93.9828 62.1572C116.15 46.03 142.061 36.8299 169.337 35.3362L177.368 52.6974L185.399 35.3362C212.675 36.8515 238.587 46.0516 260.754 62.1572C295.195 87.2032 316.56 126.688 318.963 168.943L301.624 176.953L318.963 184.962C318.271 197.15 316.041 209.142 312.296 220.724C294.112 276.79 243.696 315.258 185.334 318.461L177.347 301.165L169.359 318.461C111.041 315.214 60.6676 276.747 42.5055 220.724L42.4405 220.745Z" fill="white"/>
<path d="M177.283 340.607C267.69 340.607 340.98 267.317 340.98 176.91C340.98 86.5025 267.69 13.2129 177.283 13.2129C86.8755 13.2129 13.5859 86.5025 13.5859 176.91C13.5859 267.317 86.8755 340.607 177.283 340.607Z" stroke="white" stroke-width="25.9768" stroke-miterlimit="10"/>
<path d="M169.582 71.3357L75.2647 234.708C71.8444 240.639 76.1306 248.064 82.9711 248.064H271.627C278.49 248.064 282.776 240.639 279.334 234.708L185.017 71.3357C181.596 65.4044 173.024 65.4044 169.582 71.3357Z" stroke="white" stroke-width="7.94456" stroke-miterlimit="10"/>
<path d="M166.678 220.356C163.907 217.78 162.543 214.619 162.543 210.831C162.543 207.043 163.928 203.709 166.678 201.09C169.448 198.471 172.999 197.172 177.35 197.172C181.701 197.172 185.121 198.471 187.892 201.09C190.663 203.709 192.027 206.956 192.027 210.831C192.027 214.706 190.641 217.78 187.892 220.356C185.121 222.932 181.614 224.209 177.35 224.209C173.085 224.209 169.427 222.932 166.678 220.356ZM190.446 117.401L187.546 187.019H166.483L163.582 117.401H190.468H190.446Z" fill="white"/>
</g>
<defs>
<radialGradient id="paint0_radial_8499_6701" cx="0" cy="0" r="1" gradientUnits="userSpaceOnUse" gradientTransform="translate(177 171) scale(164)">
<stop stop-color="#EC186B"/>
<stop offset="0.29" stop-color="#AA114D"/>
<stop offset="0.97" stop-color="#060003"/>
<stop offset="1"/>
</radialGradient>
<radialGradient id="paint1_radial_8499_6701" cx="0" cy="0" r="1" gradientUnits="userSpaceOnUse" gradientTransform="translate(177.002 176.91) scale(163.697 163.697)">
<stop stop-color="#EC186B"/>
<stop offset="0.21" stop-color="#B61252"/>
<stop offset="0.6" stop-color="#550826"/>
<stop offset="0.87" stop-color="#17020A"/>
<stop offset="1"/>
</radialGradient>
<clipPath id="clip0_8499_6701">
<rect width="354" height="354" fill="white"/>
</clipPath>
</defs>
</svg>
